<svg xmlns="http://www.w3.org/2000/svg" viewBox="0 0 150 150"><defs><style>.cls-1{fill-rule:evenodd;}.cls-2{fill:#fff;}</style></defs><title>live draw</title><g id="Layer_7" data-name="Layer 7"><path class="cls-1" d="M71.9,48V69h-18v42h-6v6h-6v6h60.2v-6h6V69h-18V27h-18V48Zm12-12v3h-6V33h6ZM102,78v3H59.8V75H102Zm0,21v12H96v6H90v-6H84v6H78v-6H72v6H66v-6H60v6H54v-6h6V87h42.2V99Zm-36.1,9v3h6v-6h-6Zm12,0v3h6v-6h-6ZM90,108v3h6v-6H90Z"/><path class="cls-2" d="M102,78v3H59.8V75H102Z"/><path class="cls-2" d="M102,111V87H59.8v24h6v-6h6v6h6v-6h6v6h6v-6h6v6H102Z"/><path class="cls-2" d="M59.8,114v-3h-6v6h6Z"/><path class="cls-2" d="M71.9,114v-3h-6v6h6Z"/><path class="cls-2" d="M83.9,114v-3h-6v6h6Z"/><path class="cls-2" d="M96,114v-3H90v6h6Z"/><path class="cls-2" d="M83.9,36v3h-6V33h6Z"/></g></svg>