<svg xmlns="http://www.w3.org/2000/svg" viewBox="0 0 781 637"><defs><style>.cls-1{fill:#f9f9f9;}.cls-2{opacity:0.43;}.cls-3{fill:#f76b7c;}.cls-4{fill:#69d4f9;}</style></defs><title>assets</title><g id="exports"><rect id="SVGID" class="cls-1" width="781.1" height="637.3"/><g class="cls-2"><path class="cls-3" d="M751,31.1V606.2H30.1V30.6H751Zm-.5,574.6V31.5H30.6V605.7Z"/><rect class="cls-4" x="729.1" y="31.5" width="0.9" height="574.7"/><rect class="cls-4" x="708.1" y="31.5" width="0.9" height="574.7"/><rect class="cls-4" x="687" y="31.5" width="0.9" height="574.7"/><rect class="cls-4" x="665.6" y="31.5" width="0.9" height="574.7"/><rect class="cls-4" x="644.6" y="31.5" width="0.9" height="574.7"/><rect class="cls-4" x="623.5" y="31.5" width="0.9" height="574.7"/><rect class="cls-4" x="602.1" y="31.5" width="0.9" height="574.7"/><rect class="cls-4" x="581.1" y="31.5" width="0.9" height="574.7"/><rect class="cls-4" x="559.6" y="31.5" width="0.9" height="574.7"/><rect class="cls-4" x="538.6" y="31.5" width="0.9" height="574.7"/><rect class="cls-4" x="517.6" y="31.5" width="0.9" height="574.7"/><rect class="cls-4" x="496.1" y="31.5" width="0.9" height="574.7"/><rect class="cls-4" x="475.1" y="31.5" width="0.9" height="574.7"/><rect class="cls-4" x="453.6" y="31.5" width="0.9" height="574.7"/><rect class="cls-4" x="432.6" y="31.5" width="0.9" height="574.7"/><rect class="cls-4" x="411.6" y="31.5" width="0.9" height="574.7"/><rect class="cls-4" x="390.1" y="31.5" width="0.9" height="574.7"/><rect class="cls-4" x="369.1" y="31.5" width="0.9" height="574.7"/><rect class="cls-4" x="347.6" y="31.5" width="0.9" height="574.7"/><rect class="cls-4" x="326.6" y="31.5" width="0.9" height="574.7"/><rect class="cls-4" x="305.6" y="31.5" width="0.9" height="574.7"/><rect class="cls-4" x="284.1" y="31.5" width="0.9" height="574.7"/><rect class="cls-4" x="263.1" y="31.5" width="0.9" height="574.7"/><rect class="cls-4" x="242.1" y="31.5" width="0.9" height="574.7"/><rect class="cls-4" x="220.6" y="31.5" width="0.9" height="574.7"/><rect class="cls-4" x="199.6" y="31.5" width="0.9" height="574.7"/><rect class="cls-4" x="178.2" y="31.5" width="0.9" height="574.7"/><rect class="cls-4" x="157.1" y="31.5" width="0.9" height="574.7"/><rect class="cls-4" x="136.1" y="31.5" width="0.9" height="574.7"/><rect class="cls-4" x="114.7" y="31.5" width="0.9" height="574.7"/><rect class="cls-4" x="93.6" y="31.5" width="0.9" height="574.7"/><rect class="cls-4" x="72.2" y="31.5" width="0.9" height="574.7"/><rect class="cls-4" x="51.2" y="31.5" width="0.9" height="574.7"/><rect class="cls-4" x="30.1" y="52.1" width="720.4" height="0.9"/><rect class="cls-4" x="30.1" y="73.1" width="720.4" height="0.9"/><rect class="cls-4" x="30.1" y="94.6" width="720.4" height="0.9"/><rect class="cls-4" x="30.1" y="116" width="720.4" height="0.9"/><rect class="cls-4" x="30.1" y="137" width="720.4" height="0.9"/><rect class="cls-4" x="30.1" y="158.5" width="720.4" height="0.9"/><rect class="cls-4" x="30.1" y="179.5" width="720.4" height="0.9"/><rect class="cls-4" x="30.1" y="201" width="720.4" height="0.9"/><rect class="cls-4" x="30.1" y="222.5" width="720.4" height="0.9"/><rect class="cls-4" x="30.1" y="243.5" width="720.4" height="0.9"/><rect class="cls-4" x="30.1" y="265" width="720.4" height="0.9"/><rect class="cls-4" x="30.1" y="286" width="720.4" height="0.9"/><rect class="cls-4" x="30.1" y="307.4" width="720.4" height="0.9"/><rect class="cls-4" x="30.1" y="328.9" width="720.4" height="0.9"/><rect class="cls-4" x="30.1" y="349.9" width="720.4" height="0.9"/><rect class="cls-4" x="30.1" y="371.4" width="720.4" height="0.9"/><rect class="cls-4" x="30.1" y="392.4" width="720.4" height="0.9"/><rect class="cls-4" x="30.1" y="413.9" width="720.4" height="0.9"/><rect class="cls-4" x="30.1" y="435.3" width="720.4" height="0.9"/><rect class="cls-4" x="30.1" y="456.4" width="720.4" height="0.9"/><rect class="cls-4" x="30.1" y="477.8" width="720.4" height="0.9"/><rect class="cls-4" x="30.1" y="498.8" width="720.4" height="0.9"/><rect class="cls-4" x="30.1" y="520.3" width="720.4" height="0.9"/><rect class="cls-4" x="30.1" y="541.8" width="720.4" height="0.9"/><rect class="cls-4" x="30.1" y="562.8" width="720.4" height="0.9"/><rect class="cls-4" x="30.1" y="584.3" width="720.4" height="0.9"/></g></g></svg>