<svg xmlns="http://www.w3.org/2000/svg" viewBox="0 0 150 150"><defs><style>.cls-1{fill-rule:evenodd;}.cls-2{fill:#fff;}</style></defs><title>assets</title><g id="exports"><path class="cls-1" d="M75,42v3H69v6H63v6H57v6H51v6H45v6H39v6H33v6H27v24H75v-6h6V99h6V93h6V87h6V81h6V75h6V69h6V63h6V51h-6V39H75Zm36,6v3h-6v6h6v6h-6v6H99v6H93v6H87v6H81v6H75V87H39V81h6V75h6V69h6V63h6V57h6V51h6V45h36ZM99,60v3H93v6H87v6H81v6H75v6h6V81h6V75h6V69h6V63h6V57H99ZM69,99v6H33V93H69Z"/><path class="cls-2" d="M111,51V45H75v6H69v6H63v6H57v6H51v6H45v6H39v6H75V81h6V75h6V69h6V63h6V57h6V51h6Z"/><path class="cls-2" d="M69,99v6H33V93H69Z"/><path class="cls-2" d="M81,90V87H75v6h6Z"/><path class="cls-2" d="M87,84V81H81v6h6Z"/><path class="cls-2" d="M93,78V75H87v6h6Z"/><path class="cls-2" d="M99,72V69H93v6h6Z"/><path class="cls-2" d="M105,66V63H99v6h6Z"/><path class="cls-2" d="M108,57h-3v6h6V57Z"/></g></svg>