<svg xmlns="http://www.w3.org/2000/svg" viewBox="0 0 150 150"><defs><style>.cls-1{fill-rule:evenodd;}.cls-2{fill:#fff;}</style></defs><title>assets</title><g id="exports"><path class="cls-1" d="M75,33v6H69V51H63V63H57V75H51V87H45v36h6v-6h6v-6h6v-6h6V99h6V93h6V81h6V69h6V57h6V45h6V33H99V27H75Zm24,6v6H93v6H81v6h6V69H81V81H75V93H69v6H51V87h6V75h6V63h6V51H81V45H75V39h6V33H99Z"/><path class="cls-2" d="M81,54V51H69V63H63V75H57V87H51V99H69V93h6V81h6V69h6V57H81Z"/><path class="cls-2" d="M99,45V33H81v6H75v6h6v6H93V45h6Z"/></g></svg>