<svg xmlns="http://www.w3.org/2000/svg" viewBox="0 0 150 150"><defs><style>.cls-1{fill-rule:evenodd;}.cls-2{fill:#fff;}</style></defs><title>assets</title><g id="exports"><path class="cls-1" d="M39,30v3h6V27H39Zm12,6v3h6V33H51ZM39,42v3h6V39H39Zm24,0v3h6V39H63Zm12,0v3h6v6H75v6H69v66h42V57h-6V51H99V45H93V39H87v6H81V39H75ZM51,48v3h6V45H51ZM39,54v3h6V51H39Zm60,0v3H81V51H99Zm6,12v3H87v36h18v12H75V63h30Zm0,18v9H93V75h12Z"/><path class="cls-2" d="M105,66v3H87v36h18v12H75V63h30Z"/><path class="cls-2" d="M105,84v9H93V75h12Z"/><path class="cls-2" d="M99,57V51H81v6H99Z"/></g></svg>